<?xml version="1.0" encoding="UTF-8"?>
<svg xmlns="http://www.w3.org/2000/svg" width="800" height="600" viewBox="0 0 800 600">
  <title>Cronograma de Manutenção Preventiva — Turbina Gravitacional</title>
  <style>
    text { font-family: Arial, Helvetica, sans-serif; fill: #1a1a1a; }
    .title { font-size: 16px; font-weight: bold; text-anchor: middle; }
    .axis-label { font-size: 11px; text-anchor: middle; }
    .task-label { font-size: 11px; text-anchor: end; }
    .bar { stroke: #1a1a1a; stroke-width: 1; }
    .bar-400 { fill: #555; }
    .bar-800 { fill: #777; }
    .bar-2000 { fill: #999; }
    .bar-5000 { fill: #bbb; }
    .bar-10000 { fill: #ddd; }
    .grid { stroke: #ccc; stroke-width: 0.5; }
    .axis { stroke: #1a1a1a; stroke-width: 1.5; }
    .tick { font-size: 10px; text-anchor: middle; fill: #555; }
    .legend-label { font-size: 10px; }
    .interval { font-size: 9px; fill: #fff; text-anchor: middle; font-weight: bold; }
  </style>

  <text x="400" y="30" class="title">Cronograma de Manutenção Preventiva — 0 a 10.000 h</text>
  <line x1="100" y1="38" x2="700" y2="38" stroke="#1a1a1a" stroke-width="1"/>

  <!-- Chart area -->
  <!-- Y axis -->
  <line class="axis" x1="220" y1="60" x2="220" y2="460"/>
  <!-- X axis -->
  <line class="axis" x1="220" y1="460" x2="760" y2="460"/>

  <!-- X axis: hours (0 to 10000) -->
  <!-- Grid lines and tick labels -->
  <line class="grid" x1="220" y1="60" x2="220" y2="460"/>
  <text x="220" y="478" class="tick">0</text>

  <line class="grid" x1="274" y1="60" x2="274" y2="460"/>
  <text x="274" y="478" class="tick">1000</text>

  <line class="grid" x1="328" y1="60" x2="328" y2="460"/>
  <text x="328" y="478" class="tick">2000</text>

  <line class="grid" x1="382" y1="60" x2="382" y2="460"/>
  <text x="382" y="478" class="tick">3000</text>

  <line class="grid" x1="436" y1="60" x2="436" y2="460"/>
  <text x="436" y="478" class="tick">4000</text>

  <line class="grid" x1="490" y1="60" x2="490" y2="460"/>
  <text x="490" y="478" class="tick">5000</text>

  <line class="grid" x1="544" y1="60" x2="544" y2="460"/>
  <text x="544" y="478" class="tick">6000</text>

  <line class="grid" x1="598" y1="60" x2="598" y2="460"/>
  <text x="598" y="478" class="tick">7000</text>

  <line class="grid" x1="652" y1="60" x2="652" y2="460"/>
  <text x="652" y="478" class="tick">8000</text>

  <line class="grid" x1="706" y1="60" x2="706" y2="460"/>
  <text x="706" y="478" class="tick">9000</text>

  <line class="grid" x1="760" y1="60" x2="760" y2="460"/>
  <text x="760" y="478" class="tick">10000</text>

  <text x="490" y="500" class="axis-label" font-weight="bold">Horas de Operação</text>

  <!-- Scale: 1000h = 54px, so 400h = 21.6px, 800h = 43.2px -->
  <!-- Row height: 45px, starting at y=75 -->

  <!-- Task 1: Balanceamento do Rotor (cada 400h) -->
  <text x="215" y="92" class="task-label">Balanceamento Rotor</text>
  <!-- Bars at 400, 800, 1200, ..., 9600 -->
  <rect class="bar bar-400" x="241" y="78" width="8" height="22" rx="2"/>
  <rect class="bar bar-400" x="263" y="78" width="8" height="22" rx="2"/>
  <rect class="bar bar-400" x="284" y="78" width="8" height="22" rx="2"/>
  <rect class="bar bar-400" x="306" y="78" width="8" height="22" rx="2"/>
  <rect class="bar bar-400" x="328" y="78" width="8" height="22" rx="2"/>
  <rect class="bar bar-400" x="349" y="78" width="8" height="22" rx="2"/>
  <rect class="bar bar-400" x="371" y="78" width="8" height="22" rx="2"/>
  <rect class="bar bar-400" x="393" y="78" width="8" height="22" rx="2"/>
  <rect class="bar bar-400" x="414" y="78" width="8" height="22" rx="2"/>
  <rect class="bar bar-400" x="436" y="78" width="8" height="22" rx="2"/>
  <rect class="bar bar-400" x="458" y="78" width="8" height="22" rx="2"/>
  <rect class="bar bar-400" x="479" y="78" width="8" height="22" rx="2"/>
  <rect class="bar bar-400" x="501" y="78" width="8" height="22" rx="2"/>
  <rect class="bar bar-400" x="522" y="78" width="8" height="22" rx="2"/>
  <rect class="bar bar-400" x="544" y="78" width="8" height="22" rx="2"/>
  <rect class="bar bar-400" x="566" y="78" width="8" height="22" rx="2"/>
  <rect class="bar bar-400" x="587" y="78" width="8" height="22" rx="2"/>
  <rect class="bar bar-400" x="609" y="78" width="8" height="22" rx="2"/>
  <rect class="bar bar-400" x="630" y="78" width="8" height="22" rx="2"/>
  <rect class="bar bar-400" x="652" y="78" width="8" height="22" rx="2"/>
  <rect class="bar bar-400" x="674" y="78" width="8" height="22" rx="2"/>
  <rect class="bar bar-400" x="695" y="78" width="8" height="22" rx="2"/>
  <rect class="bar bar-400" x="717" y="78" width="8" height="22" rx="2"/>
  <rect class="bar bar-400" x="738" y="78" width="8" height="22" rx="2"/>

  <!-- Task 2: Inspeção Visual (cada 400h) -->
  <text x="215" y="137" class="task-label">Inspeção Visual</text>
  <rect class="bar bar-400" x="241" y="123" width="8" height="22" rx="2"/>
  <rect class="bar bar-400" x="263" y="123" width="8" height="22" rx="2"/>
  <rect class="bar bar-400" x="284" y="123" width="8" height="22" rx="2"/>
  <rect class="bar bar-400" x="306" y="123" width="8" height="22" rx="2"/>
  <rect class="bar bar-400" x="328" y="123" width="8" height="22" rx="2"/>
  <rect class="bar bar-400" x="349" y="123" width="8" height="22" rx="2"/>
  <rect class="bar bar-400" x="371" y="123" width="8" height="22" rx="2"/>
  <rect class="bar bar-400" x="393" y="123" width="8" height="22" rx="2"/>
  <rect class="bar bar-400" x="414" y="123" width="8" height="22" rx="2"/>
  <rect class="bar bar-400" x="436" y="123" width="8" height="22" rx="2"/>
  <rect class="bar bar-400" x="458" y="123" width="8" height="22" rx="2"/>
  <rect class="bar bar-400" x="479" y="123" width="8" height="22" rx="2"/>
  <rect class="bar bar-400" x="501" y="123" width="8" height="22" rx="2"/>
  <rect class="bar bar-400" x="522" y="123" width="8" height="22" rx="2"/>
  <rect class="bar bar-400" x="544" y="123" width="8" height="22" rx="2"/>
  <rect class="bar bar-400" x="566" y="123" width="8" height="22" rx="2"/>
  <rect class="bar bar-400" x="587" y="123" width="8" height="22" rx="2"/>
  <rect class="bar bar-400" x="609" y="123" width="8" height="22" rx="2"/>
  <rect class="bar bar-400" x="630" y="123" width="8" height="22" rx="2"/>
  <rect class="bar bar-400" x="652" y="123" width="8" height="22" rx="2"/>
  <rect class="bar bar-400" x="674" y="123" width="8" height="22" rx="2"/>
  <rect class="bar bar-400" x="695" y="123" width="8" height="22" rx="2"/>
  <rect class="bar bar-400" x="717" y="123" width="8" height="22" rx="2"/>
  <rect class="bar bar-400" x="738" y="123" width="8" height="22" rx="2"/>

  <!-- Task 3: Lubrificação Mancais (cada 800h) -->
  <text x="215" y="182" class="task-label">Lubrificação Mancais</text>
  <rect class="bar bar-800" x="263" y="168" width="10" height="22" rx="2"/>
  <rect class="bar bar-800" x="306" y="168" width="10" height="22" rx="2"/>
  <rect class="bar bar-800" x="349" y="168" width="10" height="22" rx="2"/>
  <rect class="bar bar-800" x="393" y="168" width="10" height="22" rx="2"/>
  <rect class="bar bar-800" x="436" y="168" width="10" height="22" rx="2"/>
  <rect class="bar bar-800" x="479" y="168" width="10" height="22" rx="2"/>
  <rect class="bar bar-800" x="522" y="168" width="10" height="22" rx="2"/>
  <rect class="bar bar-800" x="566" y="168" width="10" height="22" rx="2"/>
  <rect class="bar bar-800" x="609" y="168" width="10" height="22" rx="2"/>
  <rect class="bar bar-800" x="652" y="168" width="10" height="22" rx="2"/>
  <rect class="bar bar-800" x="695" y="168" width="10" height="22" rx="2"/>
  <rect class="bar bar-800" x="738" y="168" width="10" height="22" rx="2"/>

  <!-- Task 4: Verif. Sist. Criogênico (cada 800h) -->
  <text x="215" y="227" class="task-label">Verif. Sist. Criogênico</text>
  <rect class="bar bar-800" x="263" y="213" width="10" height="22" rx="2"/>
  <rect class="bar bar-800" x="306" y="213" width="10" height="22" rx="2"/>
  <rect class="bar bar-800" x="349" y="213" width="10" height="22" rx="2"/>
  <rect class="bar bar-800" x="393" y="213" width="10" height="22" rx="2"/>
  <rect class="bar bar-800" x="436" y="213" width="10" height="22" rx="2"/>
  <rect class="bar bar-800" x="479" y="213" width="10" height="22" rx="2"/>
  <rect class="bar bar-800" x="522" y="213" width="10" height="22" rx="2"/>
  <rect class="bar bar-800" x="566" y="213" width="10" height="22" rx="2"/>
  <rect class="bar bar-800" x="609" y="213" width="10" height="22" rx="2"/>
  <rect class="bar bar-800" x="652" y="213" width="10" height="22" rx="2"/>
  <rect class="bar bar-800" x="695" y="213" width="10" height="22" rx="2"/>
  <rect class="bar bar-800" x="738" y="213" width="10" height="22" rx="2"/>

  <!-- Task 5: Calibração Campo (cada 2000h) -->
  <text x="215" y="272" class="task-label">Calibração Campo</text>
  <rect class="bar bar-2000" x="328" y="258" width="14" height="22" rx="2"/>
  <rect class="bar bar-2000" x="436" y="258" width="14" height="22" rx="2"/>
  <rect class="bar bar-2000" x="544" y="258" width="14" height="22" rx="2"/>
  <rect class="bar bar-2000" x="652" y="258" width="14" height="22" rx="2"/>
  <rect class="bar bar-2000" x="760" y="258" width="14" height="22" rx="2"/>

  <!-- Task 6: Inspeção Mancais Ultrassom (cada 2000h) -->
  <text x="215" y="317" class="task-label">Inspeção Mancais</text>
  <rect class="bar bar-2000" x="328" y="303" width="14" height="22" rx="2"/>
  <rect class="bar bar-2000" x="436" y="303" width="14" height="22" rx="2"/>
  <rect class="bar bar-2000" x="544" y="303" width="14" height="22" rx="2"/>
  <rect class="bar bar-2000" x="652" y="303" width="14" height="22" rx="2"/>
  <rect class="bar bar-2000" x="760" y="303" width="14" height="22" rx="2"/>

  <!-- Task 7: Troca Mancais Emergência (cada 5000h) -->
  <text x="215" y="362" class="task-label">Troca Mancais</text>
  <rect class="bar bar-5000" x="490" y="348" width="18" height="22" rx="2"/>
  <rect class="bar bar-5000" x="760" y="348" width="18" height="22" rx="2"/>

  <!-- Task 8: Inspeção Cristal (cada 5000h) -->
  <text x="215" y="407" class="task-label">Inspeção Cristal</text>
  <rect class="bar bar-5000" x="490" y="393" width="18" height="22" rx="2"/>
  <rect class="bar bar-5000" x="760" y="393" width="18" height="22" rx="2"/>

  <!-- Task 9: Overhaul Completo (10000h) -->
  <text x="215" y="452" class="task-label">Revisão Geral (Overhaul)</text>
  <rect class="bar bar-10000" x="756" y="438" width="22" height="22" rx="2"/>

  <!-- Legend -->
  <rect x="30" y="520" width="740" height="60" fill="none" stroke="#ccc" stroke-width="1" rx="4"/>
  <text x="45" y="540" font-size="11" font-weight="bold">Legenda — Intervalos:</text>

  <rect x="190" y="530" width="16" height="12" class="bar-400" stroke="#1a1a1a" stroke-width="1" rx="2"/>
  <text x="212" y="541" class="legend-label">400 h</text>

  <rect x="270" y="530" width="16" height="12" class="bar-800" stroke="#1a1a1a" stroke-width="1" rx="2"/>
  <text x="292" y="541" class="legend-label">800 h</text>

  <rect x="350" y="530" width="16" height="12" class="bar-2000" stroke="#1a1a1a" stroke-width="1" rx="2"/>
  <text x="372" y="541" class="legend-label">2.000 h</text>

  <rect x="440" y="530" width="16" height="12" class="bar-5000" stroke="#1a1a1a" stroke-width="1" rx="2"/>
  <text x="462" y="541" class="legend-label">5.000 h</text>

  <rect x="540" y="530" width="16" height="12" class="bar-10000" stroke="#1a1a1a" stroke-width="1" rx="2"/>
  <text x="562" y="541" class="legend-label">10.000 h</text>

  <text x="45" y="568" font-size="9" fill="#777" font-style="italic">Nota: horas em marcha lenta (RPM &lt; 5.000) contam como 0,5 h para fins de manutenção preventiva.</text>
</svg>
