<?xml version="1.0" encoding="UTF-8"?>
<svg xmlns="http://www.w3.org/2000/svg" width="800" height="600" viewBox="0 0 800 600">
  <title>Linha do Tempo de Manutenção Preventiva — QTX-7000</title>

  <!-- Background -->
  <rect width="800" height="600" fill="#f0f4f8"/>

  <!-- Title -->
  <text x="400" y="35" text-anchor="middle" font-family="Arial, sans-serif" font-size="16" font-weight="bold" fill="#333">Linha do Tempo de Manutenção Preventiva — QTX-7000</text>
  <text x="400" y="55" text-anchor="middle" font-family="Arial, sans-serif" font-size="11" fill="#555">Intervalos em horas de operação (escala: 0 – 8.000 h)</text>

  <!-- Chart area: Y labels x=0..220, Chart x=220..760, top=90, bottom=480 -->

  <!-- Vertical gridlines -->
  <line x1="220" y1="90" x2="220" y2="480" stroke="#333" stroke-width="1.5"/>
  <line x1="288" y1="90" x2="288" y2="480" stroke="#333" stroke-width="0.5" stroke-dasharray="4,4"/>
  <line x1="355" y1="90" x2="355" y2="480" stroke="#333" stroke-width="0.5" stroke-dasharray="4,4"/>
  <line x1="423" y1="90" x2="423" y2="480" stroke="#333" stroke-width="0.5" stroke-dasharray="4,4"/>
  <line x1="490" y1="90" x2="490" y2="480" stroke="#333" stroke-width="0.5" stroke-dasharray="4,4"/>
  <line x1="558" y1="90" x2="558" y2="480" stroke="#333" stroke-width="0.5" stroke-dasharray="4,4"/>
  <line x1="625" y1="90" x2="625" y2="480" stroke="#333" stroke-width="0.5" stroke-dasharray="4,4"/>
  <line x1="693" y1="90" x2="693" y2="480" stroke="#333" stroke-width="0.5" stroke-dasharray="4,4"/>
  <line x1="760" y1="90" x2="760" y2="480" stroke="#333" stroke-width="1.5"/>

  <!-- X-axis labels -->
  <text x="220" y="500" text-anchor="middle" font-family="Arial, sans-serif" font-size="10" fill="#333">0</text>
  <text x="288" y="500" text-anchor="middle" font-family="Arial, sans-serif" font-size="10" fill="#333">1000</text>
  <text x="355" y="500" text-anchor="middle" font-family="Arial, sans-serif" font-size="10" fill="#333">2000</text>
  <text x="423" y="500" text-anchor="middle" font-family="Arial, sans-serif" font-size="10" fill="#333">3000</text>
  <text x="490" y="500" text-anchor="middle" font-family="Arial, sans-serif" font-size="10" fill="#333">4000</text>
  <text x="558" y="500" text-anchor="middle" font-family="Arial, sans-serif" font-size="10" fill="#333">5000</text>
  <text x="625" y="500" text-anchor="middle" font-family="Arial, sans-serif" font-size="10" fill="#333">6000</text>
  <text x="693" y="500" text-anchor="middle" font-family="Arial, sans-serif" font-size="10" fill="#333">7000</text>
  <text x="760" y="500" text-anchor="middle" font-family="Arial, sans-serif" font-size="10" fill="#333">8000</text>
  <text x="490" y="520" text-anchor="middle" font-family="Arial, sans-serif" font-size="11" font-weight="bold" fill="#333">Horas de Operação</text>

  <!-- Horizontal base line -->
  <line x1="220" y1="480" x2="760" y2="480" stroke="#333" stroke-width="1.5"/>

  <!-- Task 1: Teste de Coerência — every 200h -->
  <text x="215" y="118" text-anchor="end" font-family="Arial, sans-serif" font-size="10" font-weight="bold" fill="#333">Teste de Coerência</text>
  <text x="215" y="132" text-anchor="end" font-family="Arial, sans-serif" font-size="9" fill="#555">A cada 200 h | Nível 1</text>
  <!-- Tick marks at 200h intervals -->
  <line x1="234" y1="108" x2="234" y2="138" stroke="#333" stroke-width="2"/>
  <line x1="247" y1="108" x2="247" y2="138" stroke="#333" stroke-width="2"/>
  <line x1="261" y1="108" x2="261" y2="138" stroke="#333" stroke-width="2"/>
  <line x1="274" y1="108" x2="274" y2="138" stroke="#333" stroke-width="2"/>
  <line x1="288" y1="108" x2="288" y2="138" stroke="#333" stroke-width="2"/>
  <line x1="301" y1="108" x2="301" y2="138" stroke="#333" stroke-width="2"/>
  <line x1="315" y1="108" x2="315" y2="138" stroke="#333" stroke-width="2"/>
  <line x1="328" y1="108" x2="328" y2="138" stroke="#333" stroke-width="2"/>
  <line x1="342" y1="108" x2="342" y2="138" stroke="#333" stroke-width="2"/>
  <line x1="355" y1="108" x2="355" y2="138" stroke="#333" stroke-width="2"/>
  <line x1="369" y1="108" x2="369" y2="138" stroke="#333" stroke-width="2"/>
  <line x1="382" y1="108" x2="382" y2="138" stroke="#333" stroke-width="2"/>
  <line x1="396" y1="108" x2="396" y2="138" stroke="#333" stroke-width="2"/>
  <line x1="409" y1="108" x2="409" y2="138" stroke="#333" stroke-width="2"/>
  <line x1="423" y1="108" x2="423" y2="138" stroke="#333" stroke-width="2"/>
  <line x1="436" y1="108" x2="436" y2="138" stroke="#333" stroke-width="2"/>
  <line x1="450" y1="108" x2="450" y2="138" stroke="#333" stroke-width="2"/>
  <line x1="463" y1="108" x2="463" y2="138" stroke="#333" stroke-width="2"/>
  <line x1="477" y1="108" x2="477" y2="138" stroke="#333" stroke-width="2"/>
  <line x1="490" y1="108" x2="490" y2="138" stroke="#333" stroke-width="2"/>
  <text x="510" y="127" font-family="Arial, sans-serif" font-size="14" fill="#333">...</text>
  <line x1="220" y1="148" x2="760" y2="148" stroke="#333" stroke-width="0.3"/>

  <!-- Task 2: Troca Fluido Quântico — every 800h -->
  <text x="215" y="178" text-anchor="end" font-family="Arial, sans-serif" font-size="10" font-weight="bold" fill="#333">Troca Fluido Quântico</text>
  <text x="215" y="192" text-anchor="end" font-family="Arial, sans-serif" font-size="9" fill="#555">A cada 800 h | Nível 2</text>
  <text x="215" y="206" text-anchor="end" font-family="Arial, sans-serif" font-size="9" fill="#555">NE-FLU-0950</text>
  <rect x="269" y="165" width="10" height="35" rx="2" ry="2" fill="#333" opacity="0.7"/>
  <rect x="323" y="165" width="10" height="35" rx="2" ry="2" fill="#333" opacity="0.7"/>
  <rect x="377" y="165" width="10" height="35" rx="2" ry="2" fill="#333" opacity="0.7"/>
  <rect x="431" y="165" width="10" height="35" rx="2" ry="2" fill="#333" opacity="0.7"/>
  <rect x="485" y="165" width="10" height="35" rx="2" ry="2" fill="#333" opacity="0.7"/>
  <rect x="539" y="165" width="10" height="35" rx="2" ry="2" fill="#333" opacity="0.7"/>
  <rect x="593" y="165" width="10" height="35" rx="2" ry="2" fill="#333" opacity="0.7"/>
  <rect x="647" y="165" width="10" height="35" rx="2" ry="2" fill="#333" opacity="0.7"/>
  <rect x="701" y="165" width="10" height="35" rx="2" ry="2" fill="#333" opacity="0.7"/>
  <rect x="755" y="165" width="10" height="35" rx="2" ry="2" fill="#333" opacity="0.7"/>
  <text x="274" y="213" text-anchor="middle" font-family="Arial, sans-serif" font-size="8" fill="#555">800</text>
  <text x="328" y="213" text-anchor="middle" font-family="Arial, sans-serif" font-size="8" fill="#555">1600</text>
  <text x="382" y="213" text-anchor="middle" font-family="Arial, sans-serif" font-size="8" fill="#555">2400</text>
  <line x1="220" y1="225" x2="760" y2="225" stroke="#333" stroke-width="0.3"/>

  <!-- Task 3: Alinhamento Pares — every 2500h -->
  <text x="215" y="255" text-anchor="end" font-family="Arial, sans-serif" font-size="10" font-weight="bold" fill="#333">Alinhamento Pares</text>
  <text x="215" y="269" text-anchor="end" font-family="Arial, sans-serif" font-size="9" fill="#555">A cada 2.500 h | Nível 3</text>
  <text x="215" y="283" text-anchor="end" font-family="Arial, sans-serif" font-size="9" fill="#555">NE-KIT-3001</text>
  <rect x="384" y="242" width="14" height="35" rx="2" ry="2" fill="#333" opacity="0.55"/>
  <text x="391" y="290" text-anchor="middle" font-family="Arial, sans-serif" font-size="8" fill="#555">2500</text>
  <rect x="553" y="242" width="14" height="35" rx="2" ry="2" fill="#333" opacity="0.55"/>
  <text x="560" y="290" text-anchor="middle" font-family="Arial, sans-serif" font-size="8" fill="#555">5000</text>
  <rect x="721" y="242" width="14" height="35" rx="2" ry="2" fill="#333" opacity="0.55"/>
  <text x="728" y="290" text-anchor="middle" font-family="Arial, sans-serif" font-size="8" fill="#555">7500</text>
  <line x1="220" y1="302" x2="760" y2="302" stroke="#333" stroke-width="0.3"/>

  <!-- Task 4: Substituição Células — at 7000h -->
  <text x="215" y="332" text-anchor="end" font-family="Arial, sans-serif" font-size="10" font-weight="bold" fill="#333">Substituição Células</text>
  <text x="215" y="346" text-anchor="end" font-family="Arial, sans-serif" font-size="9" fill="#555">A cada 7.000 h | Nível 3</text>
  <text x="215" y="360" text-anchor="end" font-family="Arial, sans-serif" font-size="9" fill="#555">NE-CQA/CQB-14xx</text>
  <rect x="688" y="319" width="16" height="35" rx="2" ry="2" fill="#333" opacity="0.4"/>
  <text x="696" y="367" text-anchor="middle" font-family="Arial, sans-serif" font-size="8" fill="#555">7000</text>
  <line x1="220" y1="380" x2="760" y2="380" stroke="#333" stroke-width="0.3"/>

  <!-- Task 5: Revisão Geral — 20000h (off chart) -->
  <text x="215" y="405" text-anchor="end" font-family="Arial, sans-serif" font-size="10" font-weight="bold" fill="#333">Revisão Geral</text>
  <text x="215" y="419" text-anchor="end" font-family="Arial, sans-serif" font-size="9" fill="#555">A cada 20.000 h | Nível 4</text>
  <text x="215" y="433" text-anchor="end" font-family="Arial, sans-serif" font-size="9" fill="#555">NE-KIT-OVH-7000</text>
  <line x1="220" y1="410" x2="760" y2="410" stroke="#333" stroke-width="1" stroke-dasharray="2,6"/>
  <text x="490" y="425" text-anchor="middle" font-family="Arial, sans-serif" font-size="10" fill="#333">20.000 h (fora da escala)</text>
  <line x1="220" y1="445" x2="760" y2="445" stroke="#333" stroke-width="0.3"/>

  <!-- Task 6: Subst. Cristal Gerador — 15000h (off chart) -->
  <text x="215" y="465" text-anchor="end" font-family="Arial, sans-serif" font-size="10" font-weight="bold" fill="#333">Subst. Cristal Gerador</text>
  <text x="215" y="478" text-anchor="end" font-family="Arial, sans-serif" font-size="9" fill="#555">A cada 15.000 h | Nível 4</text>
  <line x1="220" y1="468" x2="760" y2="468" stroke="#333" stroke-width="1" stroke-dasharray="2,6"/>
  <text x="490" y="478" text-anchor="middle" font-family="Arial, sans-serif" font-size="10" fill="#333">15.000 h (fora da escala)</text>

  <!-- Legend -->
  <rect x="220" y="535" width="540" height="50" rx="4" ry="4" fill="none" stroke="#333" stroke-width="1"/>
  <text x="240" y="555" font-family="Arial, sans-serif" font-size="9" font-weight="bold" fill="#333">Legenda:</text>
  <line x1="300" y1="550" x2="310" y2="550" stroke="#333" stroke-width="2"/>
  <text x="315" y="554" font-family="Arial, sans-serif" font-size="9" fill="#333">Marcador de intervalo (alta frequência)</text>
  <rect x="520" y="544" width="12" height="12" rx="2" ry="2" fill="#333" opacity="0.6"/>
  <text x="537" y="554" font-family="Arial, sans-serif" font-size="9" fill="#333">Janela de serviço</text>
  <line x1="300" y1="572" x2="340" y2="572" stroke="#333" stroke-width="1" stroke-dasharray="2,6"/>
  <text x="345" y="576" font-family="Arial, sans-serif" font-size="9" fill="#333">Intervalo fora da escala do gráfico</text>
</svg>
